<svg width="638" height="210" viewBox="0 0 638 210" fill="none" xmlns="http://www.w3.org/2000/svg">
<path d="M65.3487 53.104C65.3487 57.424 64.2767 61.168 62.1327 64.336C60.0207 67.472 57.0767 69.888 53.3007 71.584C49.5247 73.28 45.1727 74.128 40.2447 74.128C35.9887 74.128 32.5967 73.68 30.0687 72.784C27.5407 71.888 25.2527 70.656 23.2047 69.088L23.4447 67.792C24.8847 68.784 26.1487 69.6 27.2367 70.24C28.3567 70.848 29.4287 71.296 30.4527 71.584C31.5087 71.84 32.6287 71.968 33.8127 71.968C35.7327 71.968 37.5567 71.296 39.2847 69.952C41.0447 68.576 42.4847 66.48 43.6047 63.664C44.7247 60.816 45.2847 57.184 45.2847 52.768C45.2847 47.424 44.6607 42.944 43.4127 39.328C42.1647 35.68 40.5007 32.944 38.4207 31.12C36.3727 29.264 34.1487 28.336 31.7487 28.336H29.9727V90.592C29.9727 91.04 30.1487 91.392 30.5007 91.648C30.8847 91.904 31.4447 92.112 32.1807 92.272L35.0607 92.8C35.3167 92.832 35.4927 92.896 35.5887 92.992C35.7167 93.088 35.7807 93.232 35.7807 93.424C35.7807 93.584 35.7167 93.728 35.5887 93.856C35.4927 93.952 35.3007 94 35.0127 94H4.34073C4.08473 94 3.89273 93.952 3.76473 93.856C3.63673 93.728 3.57273 93.568 3.57273 93.376C3.57273 93.088 3.82873 92.88 4.34073 92.752L7.22073 92.224C7.92473 92.064 8.43673 91.856 8.75673 91.6C9.10873 91.344 9.28473 91.04 9.28473 90.688V30.4C9.28473 29.92 9.10873 29.536 8.75673 29.248C8.43673 28.96 7.94073 28.736 7.26873 28.576L4.19673 28C3.78073 27.904 3.57273 27.712 3.57273 27.424C3.57273 27.2 3.62073 27.04 3.71673 26.944C3.84473 26.848 4.05273 26.8 4.34073 26.8H31.7967C38.5487 26.8 44.4367 27.904 49.4607 30.112C54.4847 32.32 58.3887 35.408 61.1727 39.376C63.9567 43.312 65.3487 47.888 65.3487 53.104ZM71.198 68.08H94.622L94.814 69.616H70.91L71.198 68.08ZM76.766 93.424C76.766 93.584 76.702 93.728 76.574 93.856C76.478 93.952 76.302 94 76.046 94H57.806C57.582 94 57.406 93.952 57.278 93.856C57.15 93.728 57.086 93.584 57.086 93.424C57.086 93.232 57.166 93.088 57.326 92.992C57.454 92.896 57.614 92.816 57.806 92.752L58.766 92.416C60.078 91.936 61.438 90.928 62.846 89.392C64.254 87.856 65.358 85.664 66.158 82.816L79.646 35.584C80.158 33.76 80.222 32.32 79.838 31.264C79.454 30.176 78.814 29.28 77.918 28.576C77.374 28.16 76.974 27.904 76.718 27.808C76.462 27.68 76.334 27.536 76.334 27.376C76.334 27.152 76.398 27.008 76.526 26.944C76.654 26.848 76.862 26.8 77.15 26.8H103.214C103.47 26.8 103.662 26.848 103.79 26.944C103.918 27.008 103.982 27.152 103.982 27.376C103.982 27.536 103.87 27.696 103.646 27.856C103.422 28.016 103.006 28.224 102.398 28.48C101.95 28.704 101.646 29.024 101.486 29.44C101.358 29.856 101.47 30.592 101.822 31.648L120.014 89.872C120.27 90.64 120.59 91.248 120.974 91.696C121.39 92.112 121.87 92.416 122.414 92.608C122.766 92.736 123.006 92.864 123.134 92.992C123.262 93.088 123.326 93.232 123.326 93.424C123.326 93.584 123.246 93.728 123.086 93.856C122.958 93.952 122.766 94 122.51 94H95.102C94.814 94 94.606 93.952 94.478 93.856C94.35 93.728 94.286 93.584 94.286 93.424C94.286 93.232 94.35 93.104 94.478 93.04C94.606 92.976 94.83 92.88 95.15 92.752L96.782 92.272C97.71 91.984 98.238 91.616 98.366 91.168C98.526 90.72 98.462 90 98.174 89.008L81.182 34.624L82.718 30.64L67.79 83.008C67.342 84.576 67.374 85.968 67.886 87.184C68.43 88.4 69.326 89.456 70.574 90.352C71.854 91.216 73.358 91.92 75.086 92.464L76.046 92.8C76.302 92.864 76.478 92.944 76.574 93.04C76.702 93.136 76.766 93.264 76.766 93.424ZM158.574 27.376C158.574 27.216 158.638 27.088 158.766 26.992C158.894 26.864 159.07 26.8 159.294 26.8H175.758C175.982 26.8 176.142 26.864 176.238 26.992C176.366 27.088 176.43 27.216 176.43 27.376C176.43 27.536 176.366 27.664 176.238 27.76C176.142 27.856 175.982 27.936 175.758 28L174.75 28.432C173.278 29.04 171.854 30.128 170.478 31.696C169.102 33.264 168.046 35.36 167.31 37.984L154.35 84.352C154.126 85.312 153.982 86.16 153.918 86.896C153.854 87.632 153.822 88.416 153.822 89.248V93.28C153.822 93.504 153.774 93.68 153.678 93.808C153.582 93.936 153.406 94 153.15 94H134.622C134.366 94 134.174 93.936 134.046 93.808C133.918 93.68 133.854 93.504 133.854 93.28V89.296C133.854 88.816 133.758 88.224 133.566 87.52C133.374 86.784 133.15 86 132.894 85.168L116.286 31.024C116.062 30.32 115.822 29.792 115.566 29.44C115.342 29.088 115.038 28.848 114.654 28.72L113.31 28.144C112.734 27.888 112.446 27.632 112.446 27.376C112.446 27.216 112.51 27.088 112.638 26.992C112.766 26.864 112.974 26.8 113.262 26.8H141.39C141.646 26.8 141.838 26.864 141.966 26.992C142.126 27.088 142.206 27.216 142.206 27.376C142.206 27.536 142.142 27.664 142.014 27.76C141.886 27.824 141.646 27.92 141.294 28.048L139.662 28.528C138.798 28.784 138.27 29.152 138.078 29.632C137.886 30.08 137.95 30.816 138.27 31.84L153.678 83.776L151.854 87.472L165.678 38.128C166.286 36.016 166.206 34.064 165.438 32.272C164.702 30.48 162.99 29.168 160.302 28.336L159.294 28C159.038 27.936 158.846 27.856 158.718 27.76C158.622 27.664 158.574 27.536 158.574 27.376ZM200.819 57.616H209.459C212.467 57.616 214.707 56.96 216.179 55.648C217.683 54.336 218.787 51.856 219.491 48.208C219.555 47.888 219.651 47.68 219.779 47.584C219.907 47.488 220.035 47.44 220.163 47.44C220.547 47.44 220.787 47.68 220.883 48.16L226.547 67.024C226.611 67.28 226.611 67.488 226.547 67.648C226.483 67.808 226.387 67.936 226.259 68.032C226.099 68.064 225.939 68.08 225.779 68.08C225.619 68.08 225.443 67.968 225.251 67.744C223.395 65.44 221.747 63.664 220.307 62.416C218.899 61.168 217.459 60.32 215.987 59.872C214.515 59.392 212.803 59.152 210.851 59.152H200.819V57.616ZM177.779 27.376C177.779 27.216 177.843 27.088 177.971 26.992C178.099 26.864 178.291 26.8 178.547 26.8H222.851C223.683 26.8 224.435 26.72 225.107 26.56C225.811 26.368 226.403 26.176 226.883 25.984C227.395 25.792 227.747 25.696 227.939 25.696C228.131 25.696 228.275 25.792 228.371 25.984C228.467 26.176 228.579 26.544 228.707 27.088L233.363 46.768C233.459 47.088 233.475 47.328 233.411 47.488C233.347 47.648 233.235 47.776 233.075 47.872C232.915 47.904 232.755 47.888 232.595 47.824C232.467 47.76 232.307 47.6 232.115 47.344C229.203 43.344 226.627 40.112 224.387 37.648C222.147 35.152 220.099 33.232 218.243 31.888C216.419 30.512 214.659 29.584 212.963 29.104C211.299 28.592 209.587 28.336 207.827 28.336H204.179V89.872C204.179 90.736 204.403 91.392 204.851 91.84C205.299 92.256 205.939 92.464 206.771 92.464H208.595C210.643 92.464 212.803 91.84 215.075 90.592C217.379 89.344 219.987 87.024 222.899 83.632C225.843 80.208 229.267 75.28 233.171 68.848C233.331 68.592 233.475 68.432 233.603 68.368C233.763 68.272 233.923 68.256 234.083 68.32C234.243 68.352 234.355 68.464 234.419 68.656C234.515 68.816 234.515 69.072 234.419 69.424L228.851 93.712C228.723 94.256 228.595 94.624 228.467 94.816C228.371 95.008 228.227 95.104 228.035 95.104C227.875 95.104 227.539 95.008 227.027 94.816C226.547 94.624 225.955 94.432 225.251 94.24C224.579 94.08 223.827 94 222.995 94H178.547C178.291 94 178.099 93.952 177.971 93.856C177.843 93.728 177.779 93.584 177.779 93.424C177.779 93.104 178.067 92.88 178.643 92.752L181.283 92.272C182.019 92.112 182.563 91.92 182.915 91.696C183.299 91.44 183.491 91.104 183.491 90.688V30.112C183.491 29.696 183.299 29.376 182.915 29.152C182.563 28.896 182.019 28.688 181.283 28.528L178.643 28.048C178.067 27.92 177.779 27.696 177.779 27.376ZM270.246 28.048L267.606 28.528C266.902 28.688 266.358 28.896 265.974 29.152C265.59 29.376 265.398 29.696 265.398 30.112V90.256C265.398 91.088 265.606 91.664 266.022 91.984C266.438 92.304 267.046 92.464 267.846 92.464H270.678C272.278 92.464 273.91 92.112 275.574 91.408C277.238 90.672 278.982 89.36 280.806 87.472C282.63 85.584 284.518 82.864 286.47 79.312L292.374 68.752C292.502 68.496 292.63 68.336 292.758 68.272C292.918 68.176 293.078 68.16 293.238 68.224C293.462 68.288 293.606 68.4 293.67 68.56C293.766 68.72 293.766 68.976 293.67 69.328L288.966 93.712C288.838 94.288 288.71 94.656 288.582 94.816C288.486 95.008 288.342 95.104 288.15 95.104C287.99 95.104 287.67 95.008 287.19 94.816C286.71 94.624 286.118 94.432 285.414 94.24C284.71 94.08 283.942 94 283.11 94H239.766C239.51 94 239.318 93.952 239.19 93.856C239.062 93.728 238.998 93.584 238.998 93.424C238.998 93.104 239.286 92.88 239.862 92.752L242.502 92.272C243.238 92.112 243.782 91.92 244.134 91.696C244.518 91.44 244.71 91.104 244.71 90.688V30.112C244.71 29.696 244.518 29.376 244.134 29.152C243.782 28.896 243.238 28.688 242.502 28.528L239.862 28.048C239.286 27.92 238.998 27.696 238.998 27.376C238.998 27.216 239.062 27.088 239.19 26.992C239.318 26.864 239.51 26.8 239.766 26.8H270.294C270.582 26.8 270.79 26.864 270.918 26.992C271.046 27.088 271.11 27.216 271.11 27.376C271.11 27.696 270.822 27.92 270.246 28.048Z" fill="#F7F7FF"/>
<path d="M29.9727 182.688C29.9727 183.104 30.1647 183.44 30.5487 183.696C30.9327 183.92 31.4767 184.112 32.1807 184.272L34.8207 184.752C35.3967 184.88 35.6847 185.104 35.6847 185.424C35.6847 185.584 35.6207 185.728 35.4927 185.856C35.3647 185.952 35.1567 186 34.8687 186H4.34073C4.08473 186 3.89273 185.952 3.76473 185.856C3.63673 185.728 3.57273 185.584 3.57273 185.424C3.57273 185.104 3.86073 184.88 4.43673 184.752L7.07673 184.272C7.81273 184.112 8.35673 183.92 8.70873 183.696C9.09273 183.44 9.28473 183.104 9.28473 182.688V122.112C9.28473 121.696 9.09273 121.376 8.70873 121.152C8.35673 120.896 7.81273 120.688 7.07673 120.528L4.43673 120.048C3.86073 119.92 3.57273 119.696 3.57273 119.376C3.57273 119.216 3.63673 119.088 3.76473 118.992C3.89273 118.864 4.08473 118.8 4.34073 118.8H34.8687C35.1567 118.8 35.3647 118.864 35.4927 118.992C35.6207 119.088 35.6847 119.216 35.6847 119.376C35.6847 119.696 35.3967 119.92 34.8207 120.048L32.1807 120.528C31.4767 120.688 30.9327 120.896 30.5487 121.152C30.1647 121.376 29.9727 121.696 29.9727 122.112V182.688ZM68.3667 187.008C65.7427 187.008 63.5507 186.608 61.7907 185.808C60.0627 185.008 58.7027 184.224 57.7107 183.456C56.7187 182.656 56.0147 182.256 55.5987 182.256C55.2467 182.256 54.7187 182.512 54.0147 183.024C53.3107 183.536 52.5427 184.128 51.7107 184.8C50.8787 185.472 50.0787 186.064 49.3107 186.576C48.5747 187.12 47.9987 187.392 47.5827 187.392C47.2947 187.392 46.9907 187.264 46.6707 187.008C46.3507 186.752 46.1427 186.432 46.0467 186.048L42.9267 162.72C42.8947 162.4 42.8947 162.16 42.9267 162C42.9907 161.84 43.1027 161.728 43.2627 161.664C43.4227 161.568 43.5827 161.584 43.7427 161.712C43.9347 161.808 44.0947 161.968 44.2227 162.192C47.6787 168.592 50.7347 173.472 53.3907 176.832C56.0787 180.16 58.4787 182.432 60.5907 183.648C62.7347 184.864 64.7507 185.472 66.6387 185.472C69.6467 185.472 72.0467 184.704 73.8387 183.168C75.6307 181.632 76.5267 179.216 76.5267 175.92C76.5267 173.744 76.1107 171.808 75.2787 170.112C74.4467 168.416 73.0387 166.912 71.0547 165.6C69.1027 164.256 66.4307 163.04 63.0387 161.952C57.6947 160.16 53.4067 158.128 50.1747 155.856C46.9747 153.584 44.6547 151.024 43.2147 148.176C41.7747 145.328 41.0547 142.112 41.0547 138.528C41.0547 134.432 42.1107 130.832 44.2227 127.728C46.3667 124.624 49.3587 122.208 53.1987 120.48C57.0387 118.72 61.5187 117.84 66.6387 117.84C68.8787 117.84 70.7827 118.08 72.3507 118.56C73.9187 119.04 75.1987 119.536 76.1907 120.048C77.1827 120.528 77.9667 120.768 78.5427 120.768C79.1507 120.768 80.0467 120.496 81.2307 119.952C82.4467 119.408 83.6307 118.864 84.7827 118.32C85.9667 117.744 86.8467 117.456 87.4227 117.456C87.6787 117.456 87.9187 117.552 88.1427 117.744C88.3667 117.904 88.5267 118.176 88.6227 118.56L93.9027 140.88C93.9987 141.2 93.9987 141.456 93.9027 141.648C93.8387 141.808 93.7267 141.92 93.5667 141.984C93.4067 142.048 93.2307 142.032 93.0387 141.936C92.8787 141.808 92.7507 141.664 92.6547 141.504C88.8467 135.456 85.5187 130.848 82.6707 127.68C79.8227 124.48 77.2307 122.288 74.8947 121.104C72.5587 119.92 70.2867 119.328 68.0787 119.328C65.4867 119.328 63.3747 120.256 61.7427 122.112C60.1107 123.936 59.2947 126.352 59.2947 129.36C59.2947 131.6 59.6627 133.6 60.3987 135.36C61.1667 137.088 62.4627 138.64 64.2867 140.016C66.1107 141.36 68.6067 142.576 71.7747 143.664C77.3427 145.584 81.7427 147.648 84.9747 149.856C88.2067 152.032 90.5107 154.464 91.8867 157.152C93.2947 159.84 93.9987 162.896 93.9987 166.32C93.9987 170.16 92.9747 173.648 90.9267 176.784C88.9107 179.888 85.9827 182.368 82.1427 184.224C78.3347 186.08 73.7427 187.008 68.3667 187.008ZM158.96 145.104C158.96 149.424 157.888 153.168 155.744 156.336C153.632 159.472 150.688 161.888 146.912 163.584C143.136 165.28 138.784 166.128 133.856 166.128C129.6 166.128 126.208 165.68 123.68 164.784C121.152 163.888 118.864 162.656 116.816 161.088L117.056 159.792C118.496 160.784 119.76 161.6 120.848 162.24C121.968 162.848 123.04 163.296 124.064 163.584C125.12 163.84 126.24 163.968 127.424 163.968C129.344 163.968 131.168 163.296 132.896 161.952C134.656 160.576 136.096 158.48 137.216 155.664C138.336 152.816 138.896 149.184 138.896 144.768C138.896 139.424 138.272 134.944 137.024 131.328C135.776 127.68 134.112 124.944 132.032 123.12C129.984 121.264 127.76 120.336 125.36 120.336H123.584V182.592C123.584 183.04 123.76 183.392 124.112 183.648C124.496 183.904 125.056 184.112 125.792 184.272L128.672 184.8C128.928 184.832 129.104 184.896 129.2 184.992C129.328 185.088 129.392 185.232 129.392 185.424C129.392 185.584 129.328 185.728 129.2 185.856C129.104 185.952 128.912 186 128.624 186H97.952C97.696 186 97.504 185.952 97.376 185.856C97.248 185.728 97.184 185.568 97.184 185.376C97.184 185.088 97.44 184.88 97.952 184.752L100.832 184.224C101.536 184.064 102.048 183.856 102.368 183.6C102.72 183.344 102.896 183.04 102.896 182.688V122.4C102.896 121.92 102.72 121.536 102.368 121.248C102.048 120.96 101.552 120.736 100.88 120.576L97.808 120C97.392 119.904 97.184 119.712 97.184 119.424C97.184 119.2 97.232 119.04 97.328 118.944C97.456 118.848 97.664 118.8 97.952 118.8H125.408C132.16 118.8 138.048 119.904 143.072 122.112C148.096 124.32 152 127.408 154.784 131.376C157.568 135.312 158.96 139.888 158.96 145.104ZM224.905 142.848C224.905 146.048 224.153 148.928 222.649 151.488C221.177 154.048 219.065 156.192 216.313 157.92C213.593 159.648 210.313 160.864 206.473 161.568C205.641 161.696 204.793 161.824 203.929 161.952C203.065 162.048 202.185 162.128 201.289 162.192C200.425 162.256 199.513 162.288 198.553 162.288C195.673 162.288 193.321 162.128 191.497 161.808C189.705 161.456 188.185 160.976 186.937 160.368C185.721 159.728 184.537 158.992 183.385 158.16L183.961 156.864C184.921 157.632 185.833 158.272 186.697 158.784C187.593 159.264 188.537 159.616 189.529 159.84C190.553 160.064 191.737 160.176 193.081 160.176C196.377 160.176 199.033 158.944 201.049 156.48C203.097 154.016 204.121 149.936 204.121 144.24C204.121 139.632 203.401 135.52 201.961 131.904C200.553 128.288 198.697 125.456 196.393 123.408C194.121 121.328 191.641 120.288 188.953 120.288H186.985V181.728C186.985 182.496 187.145 183.072 187.465 183.456C187.817 183.808 188.377 184.08 189.145 184.272L191.737 184.752C192.089 184.816 192.329 184.896 192.457 184.992C192.585 185.088 192.649 185.232 192.649 185.424C192.649 185.808 192.377 186 191.833 186H161.353C161.097 186 160.905 185.952 160.777 185.856C160.649 185.728 160.585 185.584 160.585 185.424C160.585 185.104 160.873 184.88 161.449 184.752L164.089 184.272C164.857 184.08 165.417 183.808 165.769 183.456C166.121 183.072 166.297 182.496 166.297 181.728V122.112C166.297 121.696 166.105 121.376 165.721 121.152C165.369 120.896 164.825 120.688 164.089 120.528L161.449 120.048C160.873 119.92 160.585 119.696 160.585 119.376C160.585 119.216 160.649 119.088 160.777 118.992C160.905 118.864 161.097 118.8 161.353 118.8H188.953C196.313 118.8 202.681 119.792 208.057 121.776C213.433 123.728 217.577 126.512 220.489 130.128C223.433 133.712 224.905 137.952 224.905 142.848ZM191.977 161.04L211.129 158.928L224.377 182.112C224.825 182.848 225.273 183.424 225.721 183.84C226.169 184.224 226.729 184.528 227.401 184.752C227.721 184.88 227.945 184.976 228.073 185.04C228.201 185.104 228.265 185.232 228.265 185.424C228.265 185.584 228.201 185.728 228.073 185.856C227.945 185.952 227.737 186 227.449 186H200.041C199.529 186 199.273 185.808 199.273 185.424C199.273 185.232 199.337 185.12 199.465 185.088C199.593 185.056 199.801 184.96 200.089 184.8L201.193 184.368C202.025 183.984 202.601 183.584 202.921 183.168C203.241 182.72 203.097 181.936 202.489 180.816L191.977 161.04ZM241.35 160.08H264.774L264.966 161.616H241.062L241.35 160.08ZM246.918 185.424C246.918 185.584 246.854 185.728 246.726 185.856C246.63 185.952 246.454 186 246.198 186H227.958C227.734 186 227.558 185.952 227.43 185.856C227.302 185.728 227.238 185.584 227.238 185.424C227.238 185.232 227.318 185.088 227.478 184.992C227.606 184.896 227.766 184.816 227.958 184.752L228.918 184.416C230.23 183.936 231.59 182.928 232.998 181.392C234.406 179.856 235.51 177.664 236.31 174.816L249.798 127.584C250.31 125.76 250.374 124.32 249.99 123.264C249.606 122.176 248.966 121.28 248.07 120.576C247.526 120.16 247.126 119.904 246.87 119.808C246.614 119.68 246.486 119.536 246.486 119.376C246.486 119.152 246.55 119.008 246.678 118.944C246.806 118.848 247.014 118.8 247.302 118.8H273.366C273.622 118.8 273.814 118.848 273.942 118.944C274.07 119.008 274.134 119.152 274.134 119.376C274.134 119.536 274.022 119.696 273.798 119.856C273.574 120.016 273.158 120.224 272.55 120.48C272.102 120.704 271.798 121.024 271.638 121.44C271.51 121.856 271.622 122.592 271.974 123.648L290.166 181.872C290.422 182.64 290.742 183.248 291.126 183.696C291.542 184.112 292.022 184.416 292.566 184.608C292.918 184.736 293.158 184.864 293.286 184.992C293.414 185.088 293.478 185.232 293.478 185.424C293.478 185.584 293.398 185.728 293.238 185.856C293.11 185.952 292.918 186 292.662 186H265.254C264.966 186 264.758 185.952 264.63 185.856C264.502 185.728 264.438 185.584 264.438 185.424C264.438 185.232 264.502 185.104 264.63 185.04C264.758 184.976 264.982 184.88 265.302 184.752L266.934 184.272C267.862 183.984 268.39 183.616 268.518 183.168C268.678 182.72 268.614 182 268.326 181.008L251.334 126.624L252.87 122.64L237.942 175.008C237.494 176.576 237.526 177.968 238.038 179.184C238.582 180.4 239.478 181.456 240.726 182.352C242.006 183.216 243.51 183.92 245.238 184.464L246.198 184.8C246.454 184.864 246.63 184.944 246.726 185.04C246.854 185.136 246.918 185.264 246.918 185.424ZM325.846 119.376C325.846 119.216 325.91 119.088 326.038 118.992C326.166 118.864 326.342 118.8 326.566 118.8H343.03C343.254 118.8 343.414 118.864 343.51 118.992C343.638 119.088 343.702 119.216 343.702 119.376C343.702 119.536 343.638 119.664 343.51 119.76C343.414 119.856 343.254 119.936 343.03 120L342.022 120.432C340.55 121.04 339.126 122.128 337.75 123.696C336.374 125.264 335.318 127.36 334.582 129.984L321.622 176.352C321.398 177.312 321.254 178.16 321.19 178.896C321.126 179.632 321.094 180.416 321.094 181.248V185.28C321.094 185.504 321.046 185.68 320.95 185.808C320.854 185.936 320.678 186 320.422 186H301.894C301.638 186 301.446 185.936 301.318 185.808C301.19 185.68 301.126 185.504 301.126 185.28V181.296C301.126 180.816 301.03 180.224 300.838 179.52C300.646 178.784 300.422 178 300.166 177.168L283.558 123.024C283.334 122.32 283.094 121.792 282.838 121.44C282.614 121.088 282.31 120.848 281.926 120.72L280.582 120.144C280.006 119.888 279.718 119.632 279.718 119.376C279.718 119.216 279.782 119.088 279.91 118.992C280.038 118.864 280.246 118.8 280.534 118.8H308.662C308.918 118.8 309.11 118.864 309.238 118.992C309.398 119.088 309.478 119.216 309.478 119.376C309.478 119.536 309.414 119.664 309.286 119.76C309.158 119.824 308.918 119.92 308.566 120.048L306.934 120.528C306.07 120.784 305.542 121.152 305.35 121.632C305.158 122.08 305.222 122.816 305.542 123.84L320.95 175.776L319.126 179.472L332.95 130.128C333.558 128.016 333.478 126.064 332.71 124.272C331.974 122.48 330.262 121.168 327.574 120.336L326.566 120C326.31 119.936 326.118 119.856 325.99 119.76C325.894 119.664 325.846 119.536 325.846 119.376ZM359.403 185.424C359.403 185.584 359.339 185.728 359.211 185.856C359.083 185.952 358.907 186 358.683 186H340.491C340.235 186 340.043 185.952 339.915 185.856C339.819 185.728 339.771 185.584 339.771 185.424C339.771 185.136 340.011 184.912 340.491 184.752L341.451 184.464C343.499 183.824 345.227 182.752 346.635 181.248C348.075 179.712 348.795 177.6 348.795 174.912V130.992C348.795 130.544 348.763 130.224 348.699 130.032C348.667 129.808 348.507 129.472 348.219 129.024L343.659 120.864C343.467 120.512 343.259 120.192 343.035 119.904C342.843 119.584 342.747 119.344 342.747 119.184C342.747 119.056 342.795 118.96 342.891 118.896C342.987 118.832 343.163 118.8 343.419 118.8H365.499C365.723 118.8 365.931 118.864 366.123 118.992C366.315 119.088 366.491 119.296 366.651 119.616L395.499 174.72L394.443 177.408V129.888C394.443 127.2 393.723 125.104 392.283 123.6C390.875 122.064 389.147 120.976 387.099 120.336L386.091 120.048C385.611 119.888 385.371 119.664 385.371 119.376C385.371 119.216 385.435 119.088 385.563 118.992C385.691 118.864 385.867 118.8 386.091 118.8H404.331C404.555 118.8 404.715 118.864 404.811 118.992C404.939 119.088 405.003 119.216 405.003 119.376C405.003 119.664 404.779 119.888 404.331 120.048L403.323 120.336C401.307 120.944 399.579 122.016 398.139 123.552C396.699 125.088 395.979 127.2 395.979 129.888V174.432C395.979 174.912 396.043 175.344 396.171 175.728C396.331 176.112 396.491 176.448 396.651 176.736L400.251 182.928C400.699 183.728 400.987 184.304 401.115 184.656C401.275 184.976 401.355 185.232 401.355 185.424C401.355 185.584 401.275 185.728 401.115 185.856C400.987 185.952 400.763 186 400.443 186H379.611C379.035 186 378.747 185.712 378.747 185.136C378.747 184.912 378.699 184.608 378.603 184.224C378.507 183.84 378.363 183.504 378.171 183.216L347.211 126.384L350.379 126.096V174.96C350.379 177.616 351.099 179.696 352.539 181.2C353.979 182.704 355.707 183.792 357.723 184.464L358.683 184.752C359.163 184.912 359.403 185.136 359.403 185.424ZM434.665 182.688C434.665 183.104 434.857 183.44 435.241 183.696C435.625 183.92 436.169 184.112 436.873 184.272L439.513 184.752C440.089 184.88 440.377 185.104 440.377 185.424C440.377 185.584 440.313 185.728 440.185 185.856C440.057 185.952 439.849 186 439.561 186H409.033C408.777 186 408.585 185.952 408.457 185.856C408.329 185.728 408.265 185.584 408.265 185.424C408.265 185.104 408.553 184.88 409.129 184.752L411.769 184.272C412.505 184.112 413.049 183.92 413.401 183.696C413.785 183.44 413.977 183.104 413.977 182.688V122.112C413.977 121.696 413.785 121.376 413.401 121.152C413.049 120.896 412.505 120.688 411.769 120.528L409.129 120.048C408.553 119.92 408.265 119.696 408.265 119.376C408.265 119.216 408.329 119.088 408.457 118.992C408.585 118.864 408.777 118.8 409.033 118.8H439.561C439.849 118.8 440.057 118.864 440.185 118.992C440.313 119.088 440.377 119.216 440.377 119.376C440.377 119.696 440.089 119.92 439.513 120.048L436.873 120.528C436.169 120.688 435.625 120.896 435.241 121.152C434.857 121.376 434.665 121.696 434.665 122.112V182.688ZM469.699 158.736L491.203 137.184C493.571 134.784 495.107 132.432 495.811 130.128C496.547 127.792 496.499 125.76 495.667 124.032C494.835 122.272 493.251 121.04 490.915 120.336L489.955 120.048C489.699 119.952 489.507 119.856 489.379 119.76C489.283 119.664 489.235 119.536 489.235 119.376C489.235 119.216 489.299 119.088 489.427 118.992C489.555 118.864 489.731 118.8 489.955 118.8H513.619C513.843 118.8 514.019 118.848 514.147 118.944C514.275 119.04 514.339 119.168 514.339 119.328C514.339 119.52 514.259 119.664 514.099 119.76C513.971 119.856 513.779 119.952 513.523 120.048C512.659 120.464 511.715 120.992 510.691 121.632C509.699 122.272 508.451 123.2 506.947 124.416C505.475 125.632 503.635 127.264 501.427 129.312C499.251 131.36 496.547 134.016 493.315 137.28L470.323 160.224L469.699 158.736ZM476.707 152.304L491.683 137.856L512.419 180.336C513.219 181.936 513.875 183.072 514.387 183.744C514.899 184.384 515.587 184.752 516.451 184.848C516.675 184.88 516.835 184.96 516.931 185.088C517.027 185.184 517.075 185.296 517.075 185.424C517.075 185.616 516.995 185.76 516.835 185.856C516.707 185.952 516.531 186 516.307 186H487.603C487.379 186 487.187 185.952 487.027 185.856C486.899 185.728 486.835 185.568 486.835 185.376C486.835 185.184 486.899 185.056 487.027 184.992C487.155 184.896 487.315 184.816 487.507 184.752L489.715 184.368C490.067 184.304 490.323 184.064 490.483 183.648C490.643 183.2 490.435 182.384 489.859 181.2L476.707 152.304ZM472.915 182.688C472.915 183.104 473.091 183.44 473.443 183.696C473.827 183.92 474.371 184.112 475.075 184.272L477.667 184.752C478.019 184.816 478.259 184.896 478.387 184.992C478.515 185.088 478.579 185.232 478.579 185.424C478.579 185.584 478.499 185.728 478.339 185.856C478.211 185.952 478.019 186 477.763 186H447.283C447.027 186 446.835 185.952 446.707 185.856C446.579 185.728 446.515 185.584 446.515 185.424C446.515 185.104 446.803 184.88 447.379 184.752L450.019 184.272C450.755 184.112 451.299 183.92 451.651 183.696C452.035 183.44 452.227 183.104 452.227 182.688V122.112C452.227 121.696 452.035 121.376 451.651 121.152C451.299 120.896 450.755 120.688 450.019 120.528L447.379 120.048C446.803 119.92 446.515 119.696 446.515 119.376C446.515 119.216 446.579 119.088 446.707 118.992C446.835 118.864 447.027 118.8 447.283 118.8H477.811C478.099 118.8 478.307 118.864 478.435 118.992C478.563 119.088 478.627 119.216 478.627 119.376C478.627 119.696 478.339 119.92 477.763 120.048L475.123 120.528C474.419 120.688 473.875 120.896 473.491 121.152C473.107 121.376 472.915 121.696 472.915 122.112V182.688ZM541.962 117.792C547.306 117.792 552.122 118.608 556.41 120.24C560.73 121.872 564.41 124.208 567.45 127.248C570.49 130.256 572.81 133.856 574.41 138.048C576.042 142.24 576.858 146.88 576.858 151.968C576.858 157.184 576.074 161.936 574.506 166.224C572.938 170.512 570.682 174.208 567.738 177.312C564.826 180.416 561.338 182.816 557.274 184.512C553.21 186.176 548.698 187.008 543.738 187.008C538.362 187.008 533.53 186.208 529.242 184.608C524.954 182.976 521.29 180.64 518.25 177.6C515.21 174.528 512.874 170.848 511.242 166.56C509.642 162.24 508.842 157.392 508.842 152.016C508.842 147.024 509.642 142.448 511.242 138.288C512.842 134.096 515.114 130.48 518.058 127.44C521.034 124.368 524.538 122 528.57 120.336C532.602 118.64 537.066 117.792 541.962 117.792ZM556.074 167.808C556.074 163.072 555.722 158.384 555.018 153.744C554.314 149.104 553.354 144.736 552.138 140.64C550.954 136.512 549.578 132.864 548.01 129.696C546.442 126.528 544.778 124.048 543.018 122.256C541.258 120.432 539.482 119.52 537.69 119.52C535.962 119.52 534.49 120.144 533.274 121.392C532.09 122.64 531.194 124.496 530.586 126.96C529.978 129.424 529.674 132.464 529.674 136.08C529.674 140.944 530.01 145.744 530.682 150.48C531.386 155.216 532.33 159.68 533.514 163.872C534.73 168.032 536.106 171.728 537.642 174.96C539.21 178.16 540.874 180.688 542.634 182.544C544.426 184.368 546.202 185.28 547.962 185.28C549.85 185.28 551.386 184.672 552.57 183.456C553.786 182.24 554.666 180.352 555.21 177.792C555.786 175.232 556.074 171.904 556.074 167.808ZM619.722 119.376C619.722 119.216 619.786 119.088 619.914 118.992C620.042 118.864 620.218 118.8 620.442 118.8H636.906C637.13 118.8 637.29 118.864 637.386 118.992C637.514 119.088 637.578 119.216 637.578 119.376C637.578 119.536 637.514 119.664 637.386 119.76C637.29 119.856 637.13 119.936 636.906 120L635.898 120.432C634.426 121.04 633.002 122.128 631.626 123.696C630.25 125.264 629.194 127.36 628.458 129.984L615.498 176.352C615.274 177.312 615.13 178.16 615.066 178.896C615.002 179.632 614.97 180.416 614.97 181.248V185.28C614.97 185.504 614.922 185.68 614.826 185.808C614.73 185.936 614.554 186 614.298 186H595.77C595.514 186 595.322 185.936 595.194 185.808C595.066 185.68 595.002 185.504 595.002 185.28V181.296C595.002 180.816 594.906 180.224 594.714 179.52C594.522 178.784 594.298 178 594.042 177.168L577.434 123.024C577.21 122.32 576.97 121.792 576.714 121.44C576.49 121.088 576.186 120.848 575.802 120.72L574.458 120.144C573.882 119.888 573.594 119.632 573.594 119.376C573.594 119.216 573.658 119.088 573.786 118.992C573.914 118.864 574.122 118.8 574.41 118.8H602.538C602.794 118.8 602.986 118.864 603.114 118.992C603.274 119.088 603.354 119.216 603.354 119.376C603.354 119.536 603.29 119.664 603.162 119.76C603.034 119.824 602.794 119.92 602.442 120.048L600.81 120.528C599.946 120.784 599.418 121.152 599.226 121.632C599.034 122.08 599.098 122.816 599.418 123.84L614.826 175.776L613.002 179.472L626.826 130.128C627.434 128.016 627.354 126.064 626.586 124.272C625.85 122.48 624.138 121.168 621.45 120.336L620.442 120C620.186 119.936 619.994 119.856 619.866 119.76C619.77 119.664 619.722 119.536 619.722 119.376Z" fill="#F7F7FF"/>
</svg>
