<svg width="332" height="349" viewBox="0 0 332 349" fill="none" xmlns="http://www.w3.org/2000/svg">
<path d="M52.4796 128.592C40.682 143.316 35.576 147.226 30.3245 165.408C27.4878 175.229 30.3318 193.411 35.6269 199.08C39.5764 203.304 44.5078 204.136 49.9775 203.1C52.7051 202.582 61.2587 199.744 61.8188 203.91C62.3788 208.083 57.2365 209.623 55.0326 209.929C35.8815 212.636 22.3746 202.888 18.9051 183.24C13.8064 154.384 24.2875 127.724 42.6022 108.914C45.2788 106.105 47.9409 103.172 51.0685 100.933C55.4181 97.8171 57.5638 93.7532 59.3094 88.7626C75.3402 42.9942 107.591 15.0282 154.178 3.55144C175.925 -1.8039 197.921 -0.490597 219.77 3.4493C243.46 7.72482 265.426 16.2759 284.642 31.1015C310.405 50.9761 326.058 77.191 330.182 109.505C333.368 134.444 330.284 158.747 320.006 181.89C308.398 208.039 288.119 225.12 262.284 236.064C243.365 244.082 223.48 247.898 203.063 249.401C195.193 249.985 187.33 249.999 179.46 250.043C177.351 250.058 174.944 250.269 174.907 247.3C174.871 244.345 177.278 244.425 179.395 244.44C208.343 244.688 233.881 235.312 255.81 216.496C277.624 197.774 291.13 174.069 295.211 145.49C300.826 106.127 289.203 72.164 261.135 44.2564C242.289 25.52 219.261 14.7583 192.764 12.0806C156.738 8.43983 125.615 19.5883 99.4082 44.3877C87.4797 55.6748 77.8787 70.7996 71.8489 86.1433C98.1281 67.9614 131.812 59.8774 162.877 55.8499C170.099 54.916 177.344 54.5585 184.61 54.4126C185.577 54.3907 186.567 54.3907 187.505 54.595C188.734 54.8649 189.767 55.4924 189.825 56.9954C189.883 58.4473 189.112 59.2499 187.818 59.6439C187.352 59.7825 186.879 59.9576 186.399 59.9649C173.212 60.1911 165.241 68.4138 158.542 78.4095C149.675 91.63 144.104 106.412 138.925 121.34C128.546 151.268 120.691 181.97 111.169 212.169C102.95 238.231 94.2295 264.103 81.5081 288.413C72.0817 306.427 60.8805 323.033 44.0569 335.685C48.8647 339.165 54.1452 340.653 59.4913 341.828C75.4057 345.323 88.2943 340.361 98.4409 327.666C109.009 314.453 115.163 299.029 120.661 283.299C130.553 254.982 137.34 225.762 145.384 196.906C152.978 169.655 160.935 142.528 173.162 116.904C180.791 100.918 189.876 85.8953 203.019 73.7473C216.366 61.4096 232.019 54.6315 250.319 54.4272C251.286 54.4199 252.268 54.4345 253.214 54.5877C254.392 54.7847 255.163 55.4997 255.279 56.7765C255.396 58.0023 254.93 58.9435 253.832 59.4615C253.185 59.7679 252.45 60.0306 251.752 60.0452C239.467 60.2714 231.822 67.8228 225.349 77.0378C216.046 90.2875 210.358 105.296 205.078 120.442C194.16 151.728 186.014 183.882 175.969 215.438C166.608 244.848 156.505 273.938 140.533 300.583C132.917 313.293 123.789 324.792 112.297 334.123C91.291 351.167 68.234 353.21 43.9696 342.076C39.9546 340.237 37.0016 339.895 33.0303 341.996C24.4548 346.519 15.1302 348.621 5.38368 348.526C3.1798 348.504 0.0812924 349.168 0.00128386 345.87C-0.0714512 342.733 2.9616 342.849 5.20911 342.828C12.9699 342.747 19.4797 339.595 25.4804 334.962C27.5533 333.365 27.9897 332.431 25.5676 330.431C13.9373 320.859 5.29639 309.193 2.11787 294.141C-1.93347 274.93 3.76169 258.054 15.4066 243.017C29.1098 225.324 47.7809 221.231 68.8013 224.777C71.3325 225.2 72.169 224.762 72.7363 222.318C74.0237 216.765 75.5802 211.272 77.1441 205.792C77.5441 204.391 77.5223 203.297 76.6567 202.071C61.6369 180.883 53.4906 155.653 52.4796 128.592ZM144.366 66.8889C143.544 66.9838 142.7 66.9911 141.9 67.1954C111.497 74.776 86.9996 91.8781 65.9647 114.576C64.9682 115.649 64.6991 116.787 64.5463 118.159C63.7317 125.55 63.9936 132.926 64.5391 140.324C65.8774 158.455 70.7652 177.797 80.2862 193.542C80.7153 194.25 89.9891 160.491 95.9679 144.206C103.314 124.214 111.868 104.843 124.713 87.6536C130.401 80.0438 137.049 73.3897 144.366 66.8889ZM16.5121 287.72C16.614 301.904 21.4508 314.256 30.6227 325.018C32.332 327.024 33.3212 327.112 34.9068 324.865C38.8418 319.298 42.2676 313.446 45.1625 307.288C56.1745 283.904 62.6334 258.988 69.5432 234.225C70.4306 231.051 68.1904 231.81 66.6848 231.971C38.049 235.042 16.5121 258.995 16.5121 287.72Z" fill="#F9A03F"/>
</svg>
